<?xml version="1.0" encoding="utf-8"?>
<!-- Generator: Adobe Illustrator 24.1.0, SVG Export Plug-In . SVG Version: 6.00 Build 0)  -->
<svg version="1.1" id="Capa_1" xmlns="http://www.w3.org/2000/svg" xmlns:xlink="http://www.w3.org/1999/xlink" x="0px" y="0px"
	 viewBox="0 0 304.6 194.1" style="enable-background:new 0 0 304.6 194.1;" xml:space="preserve">
<style type="text/css">
	.st0{fill:#4F5356;}
</style>
<g id="Capa_2_1_">
	<g id="Capa_1-2">
		<path class="st0" d="M304.6,9.6v175c0,5.3-5.2,9.6-11.7,9.6H11.7c-6.5,0-11.7-4.3-11.7-9.6V9.6C0,4.3,5.2,0,11.7,0h281.2
			C299.4,0,304.6,4.3,304.6,9.6z"/>
		<path class="st0" d="M251.5,32v130.1c0,5-4.9,9-10.9,9H49.9c-6,0-11-4-11-9V32c0-4.9,4.9-9,11-9h190.6
			C246.6,23,251.5,27.1,251.5,32z"/>
		<ellipse class="st0" cx="279.3" cy="97.1" rx="9.5" ry="7.8"/>
		<ellipse class="st0" cx="19.9" cy="97.1" rx="2.8" ry="2.3"/>
	</g>
</g>
</svg>
